<svg xmlns="http://www.w3.org/2000/svg" width="314" height="168" viewBox="0 0 314 168">
  <g id="Disability-Models" fill="none" fill-rule="evenodd">
    <g id="noun_arm-cast_1245720" fill="#000" fill-rule="nonzero" transform="translate(58 38)">
      <path id="Shape" d="M33.3666667,19.1578947 L26.5833333,19.1578947 L26.5833333,16.5789474 C28.875,14.9210526 30.3416667,12.25 30.3416667,9.21052632 C30.3416667,4.14473684 26.2166667,0 21.175,0 C16.1333333,0 12.0083333,4.14473684 12.0083333,9.21052632 C12.0083333,12.5263158 13.75,15.4736842 16.4083333,17.0394737 L16.4083333,19.1578947 L10.45,19.1578947 C4.58333333,19.1578947 0,23.6710526 0,29.3815789 L0,49.8289474 C0,51.2105263 1.1,52.3157895 2.56666667,52.3157895 L9.16666667,52.3157895 L9.16666667,53.4210526 C9.16666667,54.9868421 10.8166667,56 12.375,56 L31.9,56 C35.5666667,56 38.5,53.2368421 38.5,49.9210526 L38.5,46.0526316 C38.5,44.0263158 37.4,42.2763158 35.6583333,41.2631579 L35.75,41.2631579 L35.75,31.1315789 L37.5833333,31.1315789 L37.5833333,29.2894737 L35.75,29.2894737 L35.75,21.2763158 C39.6,22.1973684 42.1666667,25.2368421 42.1666667,29.4736842 L42.1666667,52.3157895 L44,52.3157895 L44,29.4736842 C44,23.3947368 39.6,19.1578947 33.3666667,19.1578947 Z M13.9333333,9.21052632 C13.9333333,5.15789474 17.2333333,1.84210526 21.2666667,1.84210526 C25.3,1.84210526 28.6,5.15789474 28.6,9.21052632 C28.6,13.2631579 25.3,16.5789474 21.2666667,16.5789474 C17.2333333,16.5789474 13.9333333,13.2631579 13.9333333,9.21052632 Z M2.56666667,50.4736842 C2.2,50.4736842 1.83333333,50.2894737 1.83333333,49.8289474 L1.83333333,29.3815789 C1.83333333,24.6842105 5.68333333,21 10.5416667,21 L18.3333333,21 L18.3333333,17.8684211 C19.25,18.1447368 20.1666667,18.3289474 21.2666667,18.3289474 C22.55,18.3289474 23.7416667,18.0526316 24.75,17.5921053 L24.75,21 L26.0333333,21 L16.9583333,40.25 L17.1416667,40.3421053 L11.9166667,40.3421053 C10.2666667,40.3421053 9.16666667,41.1710526 9.16666667,42.2763158 L9.16666667,31.1315789 L11,31.1315789 L11,29.2894737 L7.33333333,29.2894737 L7.33333333,45.8684211 L9.16666667,45.8684211 L9.16666667,50.4736842 L2.56666667,50.4736842 Z M17.2333333,42.1842105 L22.55,49 L18.7916667,54.1578947 L17.325,54.1578947 L15.0333333,42.1842105 L17.2333333,42.1842105 Z M27.4083333,45.4078947 L29.2416667,48.0789474 L26.4,54.1578947 L21.0833333,54.1578947 L27.4083333,45.4078947 Z M25.2083333,42.1842105 L26.3083333,43.8421053 L23.65,47.4342105 L19.525,42.1842105 L25.2083333,42.1842105 Z M11,53.4210526 L11,42.3684211 C11.0916667,42.2763158 11.4583333,42.1842105 11.9166667,42.1842105 L13.2,42.1842105 L15.4916667,54.1578947 L12.4666667,54.1578947 C11.7333333,54.1578947 11,53.7894737 11,53.4210526 Z M28.4166667,54.1578947 L30.4333333,49.8289474 L33.275,53.9736842 C32.8166667,54.0657895 32.3583333,54.1578947 31.8083333,54.1578947 L28.4166667,54.1578947 Z M35.0166667,53.1447368 L27.4083333,42.1842105 L29.8833333,42.1842105 L36.6666667,48.9078947 L36.6666667,49.9210526 C36.6666667,51.2105263 36.025,52.3157895 35.0166667,53.1447368 Z M36.6666667,46.3289474 L32.5416667,42.1842105 C34.65,42.2763158 36.6666667,43.75 36.6666667,46.0526316 L36.6666667,46.3289474 Z M33.9166667,36.6578947 L28.4166667,36.6578947 L28.4166667,38.5 L33.9166667,38.5 L33.9166667,40.5263158 C33.3666667,40.4342105 32.8166667,40.3421053 32.175,40.3421053 L18.975,40.3421053 L24.2,29.2894737 L30.25,29.2894737 L30.25,27.4473684 L25.025,27.4473684 L26.7666667,23.7631579 L30.25,23.7631579 L30.25,21.9210526 L27.6833333,21.9210526 L28.1416667,21 L33.4583333,21 C33.6416667,21 33.825,21 34.0083333,21 L34.0083333,36.6578947 L33.9166667,36.6578947 Z"/>
    </g>
    <text id="Medical" fill="#1C1B1B" fill-opacity=".76" font-family="AvenirNext-Medium, Avenir Next" font-size="20" font-weight="400" letter-spacing=".45">
      <tspan x="40.765" y="133">Medical</tspan>
    </text>
    <text id="vs." fill="#1C1B1B" fill-opacity=".76" font-family="AvenirNext-Medium, Avenir Next" font-size="20" font-weight="400" letter-spacing=".45">
      <tspan x="145.245" y="87">vs.</tspan>
    </text>
    <text id="Social" fill="#1C1B1B" fill-opacity=".76" font-family="AvenirNext-Medium, Avenir Next" font-size="20" font-weight="400" letter-spacing=".45">
      <tspan x="202.31" y="133">Social</tspan>
    </text>
    <g id="Group" fill="#000" fill-rule="nonzero" transform="translate(201 32)">
      <path id="Shape" d="M18 14C20.206 14 22 12.206 22 10 22 7.794 20.206 6 18 6 15.794 6 14 7.794 14 10 14 12.206 15.794 14 18 14zM18 8C19.103 8 20 8.897 20 10 20 11.103 19.103 12 18 12 16.897 12 16 11.103 16 10 16 8.897 16.897 8 18 8zM18 22C20.206 22 22 20.206 22 18 22 15.794 20.206 14 18 14 15.794 14 14 15.794 14 18 14 20.206 15.794 22 18 22zM18 16C19.103 16 20 16.897 20 18 20 19.103 19.103 20 18 20 16.897 20 16 19.103 16 18 16 16.897 16.897 16 18 16zM18 30C20.206 30 22 28.206 22 26 22 23.794 20.206 22 18 22 15.794 22 14 23.794 14 26 14 28.206 15.794 30 18 30zM18 24C19.103 24 20 24.897 20 26 20 27.103 19.103 28 18 28 16.897 28 16 27.103 16 26 16 24.897 16.897 24 18 24z"/>
      <path id="Shape" d="M49.816,60 C49.928,59.686 50,59.352 50,59 L50,52 L51,52 L51,50 L50,50 L50,43.829 C50.313,43.939 50.649,44 51,44 C52.654,44 54,42.654 54,41 L54,31 C54,28.809 52.953,26.715 51.2,25.4 C49.997,24.497 48.505,24 47,24 L45,24 L43,24 C41.495,24 40.003,24.497 38.8,25.4 C37.047,26.715 36,28.809 36,31 L36,41 C36,42.654 37.346,44 39,44 C39.351,44 39.687,43.939 40,43.829 L40,50 L39,50 L39,52 L40,52 L40,59 C40,59.352 40.072,59.686 40.184,60 L23,60 L23,56 L19,56 L19,32 L24,32 L24,31.618 L28,29.618 L28,23 L24,23 L24,22.618 L28,20.618 L28,14 L24,14 L24,13.618 L28,11.618 L28,5 L24,5 L24,4 L22,4 C22,1.794 20.206,0 18,0 C15.794,0 14,1.794 14,4 L12,4 L12,5 L8,5 L8,11.618 L12,13.618 L12,14 L8,14 L8,20.618 L12,22.618 L12,23 L8,23 L8,29.618 L12,31.618 L12,32 L17,32 L17,56 L13,56 L13,60 L0,60 L0,62 L13,62 L23,62 L62,62 L62,60 L49.816,60 Z M26,25 L26,28.382 L24,29.382 L24,25 L26,25 Z M26,16 L26,19.382 L24,20.382 L24,16 L26,16 Z M26,7 L26,10.382 L24,11.382 L24,7 L26,7 Z M18,2 C19.103,2 20,2.897 20,4 L16,4 C16,2.897 16.897,2 18,2 Z M10,10.382 L10,7 L12,7 L12,11.382 L10,10.382 Z M10,19.382 L10,16 L12,16 L12,20.382 L10,19.382 Z M10,28.382 L10,25 L12,25 L12,29.382 L10,28.382 Z M14,26 L14,18 L14,10 L14,6 L18,6 L22,6 L22,10 L22,18 L22,26 L22,30 L18,30 L14,30 L14,26 Z M15,60 L15,58 L21,58 L21,60 L15,60 Z M48,59 C48,59.552 47.551,60 47,60 C46.449,60 46,59.552 46,59 L46,52 L48,52 L48,59 Z M51,42 C50.449,42 50,41.552 50,41 L50,35 L52,35 L52,41 C52,41.552 51.551,42 51,42 Z M46,26 C46,26.552 45.551,27 45,27 C44.449,27 44,26.552 44,26 L46,26 Z M40,27 C40.593,26.555 41.287,26.26 42.011,26.112 C42.072,27.713 43.384,29 45,29 C46.616,29 47.928,27.713 47.989,26.112 C48.713,26.26 49.407,26.555 50,27 C51.252,27.939 52,29.435 52,31 L52,33 L50,33 L50,30 L48,30 L48,38 L42,38 L42,30 L40,30 L40,33 L38,33 L38,31 C38,29.435 38.748,27.939 40,27 Z M39,42 C38.449,42 38,41.552 38,41 L38,35 L40,35 L40,41 C40,41.552 39.551,42 39,42 Z M42,40 L48,40 L48,50 L46,50 L46,42 L44,42 L44,50 L42,50 L42,40 Z M42,59 L42,52 L44,52 L44,59 C44,59.552 43.551,60 43,60 C42.449,60 42,59.552 42,59 Z"/>
      <path id="Shape" d="M50,19 C50,16.243 47.757,14 45,14 C42.243,14 40,16.243 40,19 C40,21.757 42.243,24 45,24 C47.757,24 50,21.757 50,19 Z M45,22 C43.346,22 42,20.654 42,19 C42,17.346 43.346,16 45,16 C46.654,16 48,17.346 48,19 C48,20.654 46.654,22 45,22 Z"/>
    </g>
  </g>
</svg>
